<?xml version="1.0" encoding="utf-8" standalone="no"?>
<!DOCTYPE svg PUBLIC "-//W3C//DTD SVG 1.1//EN"
  "http://www.w3.org/Graphics/SVG/1.1/DTD/svg11.dtd">
<!-- Created with matplotlib (http://matplotlib.org/) -->
<svg height="111pt" version="1.1" viewBox="0 0 111 111" width="111pt" xmlns="http://www.w3.org/2000/svg" xmlns:xlink="http://www.w3.org/1999/xlink">
 <defs>
  <style type="text/css">
*{stroke-linecap:butt;stroke-linejoin:round;}
  </style>
 </defs>
 <g id="figure_1">
  <g id="patch_1">
   <path d="
M0 111.6
L111.6 111.6
L111.6 0
L0 0
L0 111.6" style="fill:none;"/>
  </g>
  <g id="axes_1">
   <g id="patch_2">
    <path d="
M36.0169 79.3609
C39.7341 82.9212 44.2382 85.4909 49.1363 86.8456
C54.0344 88.2004 59.1798 88.2997 64.1235 87.135
C69.0672 85.9702 73.6613 83.5762 77.5049 80.1618
C81.3485 76.7474 84.3265 72.415 86.1791 67.5424
C88.0317 62.6697 88.7034 57.4029 88.1356 52.2014
C87.5679 46.9998 85.7776 42.0194 82.9211 37.6944
C80.0646 33.3695 76.2273 29.8297 71.7441 27.3838
C67.2608 24.9379 62.2659 23.6592 57.195 23.6592
L57.195 32.5872
C60.8573 32.5872 64.4648 33.5107 67.7027 35.2772
C70.9406 37.0437 73.7119 39.6002 75.775 42.7238
C77.838 45.8473 79.131 49.4443 79.541 53.201
C79.9511 56.9577 79.4659 60.7615 78.1279 64.2806
C76.7899 67.7997 74.6392 70.9287 71.8632 73.3946
C69.0873 75.8606 65.7694 77.5896 62.1989 78.4308
C58.6284 79.272 54.9123 79.2003 51.3748 78.2218
C47.8373 77.2434 44.5843 75.3875 41.8997 72.8162
L36.0169 79.3609
z
" style="fill:#00441b;"/>
   </g>
   <g id="patch_3">
    <path d="
M57.195 23.6592
C50.9384 23.6592 44.8247 25.6059 39.6552 29.244
C34.4858 32.8822 30.4967 38.0457 28.2109 44.0576
C25.9251 50.0696 25.447 56.6555 26.8393 62.952
C28.2315 69.2485 31.4304 74.968 36.0169 79.3609
L41.8997 72.8162
C38.5873 69.6436 36.2769 65.5128 35.2714 60.9653
C34.2659 56.4178 34.6112 51.6614 36.2621 47.3194
C37.9129 42.9774 40.7939 39.2482 44.5274 36.6207
C48.2609 33.9931 52.6763 32.5872 57.195 32.5872
L57.195 23.6592
z
" style="fill:#ffffff;"/>
   </g>
   <g id="patch_4">
    <path d="
M45.1339 94.9362
C50.6043 96.7326 56.3871 97.2857 62.0842 96.5575
C67.7812 95.8293 73.2586 93.8369 78.1393 90.7174
C83.02 87.5979 87.1893 83.4247 90.3602 78.485
C93.5311 73.5453 95.629 67.9552 96.5096 62.0996
C97.3901 56.244 97.0326 50.2605 95.4616 44.561
C93.8906 38.8615 91.1431 33.5799 87.4082 29.0799
C83.6733 24.5799 79.0388 20.9671 73.8237 18.4904
C68.6086 16.0137 62.9355 14.7312 57.195 14.7312
L57.195 23.6592
C61.6876 23.6592 66.1274 24.6629 70.2088 26.6012
C74.2901 28.5395 77.9172 31.3669 80.8401 34.8886
C83.7631 38.4104 85.9133 42.5438 87.1428 47.0043
C88.3722 51.4647 88.652 56.1475 87.9629 60.7301
C87.2738 65.3128 85.6319 69.6876 83.1504 73.5535
C80.6688 77.4193 77.4059 80.6853 73.5862 83.1267
C69.7665 85.568 65.4798 87.1273 61.0213 87.6972
C56.5628 88.2671 52.0371 87.8342 47.7559 86.4283
L45.1339 94.9362
z
" style="fill:#1b7837;"/>
   </g>
   <g id="patch_5">
    <path d="
M57.195 14.7312
C47.7033 14.7312 38.5179 18.2375 31.3099 24.6121
C24.1018 30.9868 19.3364 39.8184 17.8804 49.5004
C16.4245 59.1823 18.372 69.0896 23.3688 77.4199
C28.3655 85.7503 36.0889 91.9659 45.1339 94.9362
L47.7559 86.4283
C40.6772 84.1038 34.6328 79.2393 30.7223 72.7199
C26.8118 66.2006 25.2876 58.447 26.4271 50.8699
C27.5665 43.2927 31.296 36.381 36.9371 31.3921
C42.5782 26.4032 49.7667 23.6592 57.195 23.6592
L57.195 14.7312
z
" style="fill:#ffffff;"/>
   </g>
   <g id="matplotlib.axis_1"/>
   <g id="matplotlib.axis_2"/>
   <g id="text_1">
    <text style="font-family:Bitstream Vera Sans;font-size:13.0px;font-style:normal;" transform="translate(43.210859375 51.95644375)">TYR</text>
    <text style="font-family:Bitstream Vera Sans;font-size:13.0px;font-style:normal;" transform="translate(44.451953125 66.5136)">280</text>
   </g>
  </g>
 </g>
</svg>
