<?xml version="1.0" encoding="utf-8" standalone="no"?>
<!DOCTYPE svg PUBLIC "-//W3C//DTD SVG 1.1//EN"
  "http://www.w3.org/Graphics/SVG/1.1/DTD/svg11.dtd">
<!-- Created with matplotlib (http://matplotlib.org/) -->
<svg height="111pt" version="1.1" viewBox="0 0 111 111" width="111pt" xmlns="http://www.w3.org/2000/svg" xmlns:xlink="http://www.w3.org/1999/xlink">
 <defs>
  <style type="text/css">
*{stroke-linecap:butt;stroke-linejoin:round;stroke-miterlimit:100000;}
  </style>
 </defs>
 <g id="figure_1">
  <g id="patch_1">
   <path d="M 0 111.6 
L 111.6 111.6 
L 111.6 0 
L 0 0 
L 0 111.6 
z
" style="fill:none;"/>
  </g>
  <g id="axes_1">
   <g id="patch_2">
    <path d="M 36.016866 79.36087 
C 39.734084 82.921206 44.238209 85.49085 49.136303 86.845628 
C 54.034397 88.200405 59.179755 88.299739 64.123498 87.134964 
C 69.06724 85.970188 73.661296 83.576189 77.50488 80.161819 
C 81.348463 76.74745 84.326456 72.414973 86.179057 67.542355 
C 88.031657 62.669737 88.703379 57.402917 88.135621 52.201374 
C 87.567863 46.99983 85.77763 42.019355 82.921102 37.694444 
C 80.064573 33.369533 76.227306 29.829722 71.744063 27.383824 
C 67.260821 24.937927 62.26588 23.6592 57.195 23.6592 
L 57.195 32.5872 
C 60.857302 32.5872 64.464759 33.510725 67.702657 35.277206 
C 70.940555 37.043688 73.711914 39.600218 75.774962 42.723765 
C 77.83801 45.847312 79.130957 49.444322 79.541004 53.200992 
C 79.951052 56.957662 79.465919 60.761477 78.12793 64.28059 
C 76.78994 67.799703 74.639168 70.928714 71.863246 73.394647 
C 69.087325 75.860581 65.769395 77.58958 62.198915 78.430807 
C 58.628434 79.272034 54.912342 79.200293 51.37483 78.221842 
C 47.837318 77.243392 44.584338 75.387537 41.899681 72.816184 
L 36.016866 79.36087 
z
" style="fill:#00441b;"/>
   </g>
   <g id="patch_3">
    <path d="M 57.195006 23.6592 
C 50.938394 23.659199 44.824702 25.605855 39.655246 29.244022 
C 34.48579 32.882188 30.496742 38.045653 28.210944 44.057642 
C 25.925147 50.069632 25.447027 56.655485 26.839253 62.951996 
C 28.23148 69.248507 31.430446 74.968017 36.016866 79.36087 
L 41.899681 72.816184 
C 38.587267 69.643567 36.276902 65.512811 35.271405 60.96533 
C 34.265909 56.41785 34.611217 51.661401 36.262071 47.319408 
C 37.912925 42.977416 40.793904 39.248247 44.5274 36.620682 
C 48.260896 33.993118 52.67634 32.587199 57.195004 32.5872 
L 57.195006 23.6592 
z
" style="fill:#ffffff;"/>
   </g>
   <g id="patch_4">
    <path d="M 45.133943 94.936182 
C 50.604339 96.732579 56.38713 97.28572 62.084154 96.55752 
C 67.781178 95.82932 73.258609 93.836885 78.13931 90.7174 
C 83.020011 87.597915 87.189332 83.424658 90.360202 78.48497 
C 93.531072 73.545283 95.629008 67.955199 96.509558 62.099615 
C 97.390109 56.24403 97.03259 50.260494 95.461619 44.560992 
C 93.890647 38.86149 91.143126 33.579904 87.408229 29.079888 
C 83.673333 24.579873 79.038796 20.967135 73.82372 18.490422 
C 68.608645 16.013709 62.935534 14.7312 57.195 14.7312 
L 57.195 23.6592 
C 61.687592 23.6592 66.127418 24.662903 70.208781 26.6012 
C 74.290145 28.539497 77.917174 31.366857 80.840136 34.888608 
C 83.763098 38.410359 85.913333 42.543775 87.142788 47.004255 
C 88.372244 51.464735 88.652041 56.147502 87.962915 60.730133 
C 87.273789 65.312764 85.631926 69.687612 83.150375 73.553455 
C 80.668825 77.419297 77.405878 80.685325 73.586199 83.126661 
C 69.76652 85.567997 65.479835 87.127294 61.021294 87.69719 
C 56.562754 88.267085 52.037091 87.834192 47.755912 86.428317 
L 45.133943 94.936182 
z
" style="fill:#1b7837;"/>
   </g>
   <g id="patch_5">
    <path d="M 57.195007 14.7312 
C 47.703299 14.731198 38.517947 18.23746 31.309896 24.612146 
C 24.101845 30.986833 19.336393 39.818443 17.880443 49.500382 
C 16.424492 59.18232 18.372029 69.089594 23.368768 77.419931 
C 28.365507 85.750268 36.088896 91.965924 45.133943 94.936182 
L 47.755912 86.428317 
C 40.67718 84.103766 34.632788 79.23934 30.722296 72.719946 
C 26.811805 66.200552 25.287646 58.447033 26.427085 50.869864 
C 27.566525 43.292695 31.296009 36.381 36.937093 31.392115 
C 42.578176 26.403229 49.766713 23.659199 57.195006 23.6592 
L 57.195007 14.7312 
z
" style="fill:#ffffff;"/>
   </g>
   <g id="matplotlib.axis_1"/>
   <g id="matplotlib.axis_2"/>
   <g id="text_1">
    <text style="font-family:Bitstream Vera Sans;font-size:13.0px;font-style:normal;font-weight:700;" transform="translate(43.049375 51.95644375)">TYR</text>
    <text style="font-family:Bitstream Vera Sans;font-size:13.0px;font-style:normal;font-weight:700;" transform="translate(43.627265625 66.5136)">280</text>
   </g>
  </g>
 </g>
</svg>
