<?xml version='1.0' encoding='iso-8859-1'?>
 <svg version='1.1' baseProfile='full'
               xmlns:svg='http://www.w3.org/2000/svg'
                       xmlns:rdkit='http://www.rdkit.org/xml'
                       xmlns:xlink='http://www.w3.org/1999/xlink'
                   xml:space='preserve'
 width='1181.40854272px' height='972.331668998px' > 
 <rect style='opacity:1.0;fill:white;stroke:none' width='1181.40854272px' height='972.331668998px' x='0' y='0'> </rect> <g transform='translate(140.704271362,231.165834499)'>'<rect style='opacity:1.0;fill:#ffffff;stroke:none' width='900' height='450' x='0' y='0' /> 
 <line stroke-dasharray='5,5'  x1='644' y1='565' x2='652.152' y2='386.113' style='stroke:black;stroke-width:4' /><line stroke-dasharray='5,5'  x1='55' y1='79' x2='129.227' y2='238.075' style='stroke:black;stroke-width:4' /><line stroke-dasharray='5,5'  x1='931' y1='291' x2='787.905' y2='191.611' style='stroke:black;stroke-width:4' /><ellipse cx='129.227' cy='238.075' rx='31.6256' ry='31.6256' style='fill:#FFFFFF;fill-rule:evenoddstroke:#FFFFFF;stroke-width:1px;stroke-linecap:butt;stroke-linejoin:miter;stroke-opacity:1' />
<ellipse cx='247.387' cy='248.232' rx='31.6256' ry='31.6256' style='fill:#FFFFFF;fill-rule:evenoddstroke:#FFFFFF;stroke-width:1px;stroke-linecap:butt;stroke-linejoin:miter;stroke-opacity:1' />
<ellipse cx='315.264' cy='150.981' rx='31.6256' ry='31.6256' style='fill:#FFFFFF;fill-rule:evenoddstroke:#FFFFFF;stroke-width:1px;stroke-linecap:butt;stroke-linejoin:miter;stroke-opacity:1' />
<ellipse cx='433.424' cy='161.138' rx='31.6256' ry='31.6256' style='fill:#FFFFFF;fill-rule:evenoddstroke:#FFFFFF;stroke-width:1px;stroke-linecap:butt;stroke-linejoin:miter;stroke-opacity:1' />
<ellipse cx='483.708' cy='268.547' rx='31.6256' ry='31.6256' style='fill:#FFFFFF;fill-rule:evenoddstroke:#FFFFFF;stroke-width:1px;stroke-linecap:butt;stroke-linejoin:miter;stroke-opacity:1' />
<ellipse cx='601.868' cy='278.704' rx='31.6256' ry='31.6256' style='fill:#FFFFFF;fill-rule:evenoddstroke:#FFFFFF;stroke-width:1px;stroke-linecap:butt;stroke-linejoin:miter;stroke-opacity:1' />
<ellipse cx='652.152' cy='386.113' rx='31.6256' ry='31.6256' style='fill:#FFFFFF;fill-rule:evenoddstroke:#FFFFFF;stroke-width:1px;stroke-linecap:butt;stroke-linejoin:miter;stroke-opacity:1' />
<ellipse cx='669.745' cy='181.453' rx='31.6256' ry='31.6256' style='fill:#FFFFFF;fill-rule:evenoddstroke:#FFFFFF;stroke-width:1px;stroke-linecap:butt;stroke-linejoin:miter;stroke-opacity:1' />
<ellipse cx='787.905' cy='191.611' rx='31.6256' ry='31.6256' style='fill:#FFFFFF;fill-rule:evenoddstroke:#FFFFFF;stroke-width:1px;stroke-linecap:butt;stroke-linejoin:miter;stroke-opacity:1' />
<ellipse cx='619.461' cy='74.0447' rx='31.6256' ry='31.6256' style='fill:#FFFFFF;fill-rule:evenoddstroke:#FFFFFF;stroke-width:1px;stroke-linecap:butt;stroke-linejoin:miter;stroke-opacity:1' />
<ellipse cx='501.301' cy='63.8874' rx='31.6256' ry='31.6256' style='fill:#FFFFFF;fill-rule:evenoddstroke:#FFFFFF;stroke-width:1px;stroke-linecap:butt;stroke-linejoin:miter;stroke-opacity:1' />
<path d='M 173.386,241.871 210.387,245.051' style='fill:none;fill-rule:evenodd;stroke:#0000FF;stroke-width:2px;stroke-linecap:butt;stroke-linejoin:miter;stroke-opacity:1' />
<path d='M 210.387,245.051 247.387,248.232' style='fill:none;fill-rule:evenodd;stroke:#000000;stroke-width:2px;stroke-linecap:butt;stroke-linejoin:miter;stroke-opacity:1' />
<path d='M 247.387,248.232 315.264,150.981' style='fill:none;fill-rule:evenodd;stroke:#000000;stroke-width:2px;stroke-linecap:butt;stroke-linejoin:miter;stroke-opacity:1' />
<path d='M 315.264,150.981 433.424,161.138' style='fill:none;fill-rule:evenodd;stroke:#000000;stroke-width:2px;stroke-linecap:butt;stroke-linejoin:miter;stroke-opacity:1' />
<path d='M 433.424,161.138 483.708,268.547' style='fill:none;fill-rule:evenodd;stroke:#000000;stroke-width:2px;stroke-linecap:butt;stroke-linejoin:miter;stroke-opacity:1' />
<path d='M 452.774,165.175 493.001,251.102' style='fill:none;fill-rule:evenodd;stroke:#000000;stroke-width:2px;stroke-linecap:butt;stroke-linejoin:miter;stroke-opacity:1' />
<path d='M 433.424,161.138 501.301,63.8874' style='fill:none;fill-rule:evenodd;stroke:#000000;stroke-width:2px;stroke-linecap:butt;stroke-linejoin:miter;stroke-opacity:1' />
<path d='M 483.708,268.547 601.868,278.704' style='fill:none;fill-rule:evenodd;stroke:#000000;stroke-width:2px;stroke-linecap:butt;stroke-linejoin:miter;stroke-opacity:1' />
<path d='M 601.868,278.704 622.383,322.525' style='fill:none;fill-rule:evenodd;stroke:#000000;stroke-width:2px;stroke-linecap:butt;stroke-linejoin:miter;stroke-opacity:1' />
<path d='M 622.383,322.525 642.898,366.347' style='fill:none;fill-rule:evenodd;stroke:#FF0000;stroke-width:2px;stroke-linecap:butt;stroke-linejoin:miter;stroke-opacity:1' />
<path d='M 601.868,278.704 669.745,181.453' style='fill:none;fill-rule:evenodd;stroke:#000000;stroke-width:2px;stroke-linecap:butt;stroke-linejoin:miter;stroke-opacity:1' />
<path d='M 669.745,181.453 711.028,185.002' style='fill:none;fill-rule:evenodd;stroke:#000000;stroke-width:2px;stroke-linecap:butt;stroke-linejoin:miter;stroke-opacity:1' />
<path d='M 711.028,185.002 752.312,188.551' style='fill:none;fill-rule:evenodd;stroke:#FF0000;stroke-width:2px;stroke-linecap:butt;stroke-linejoin:miter;stroke-opacity:1' />
<path d='M 669.745,181.453 619.461,74.0447' style='fill:none;fill-rule:evenodd;stroke:#000000;stroke-width:2px;stroke-linecap:butt;stroke-linejoin:miter;stroke-opacity:1' />
<path d='M 650.395,177.417 610.168,91.4901' style='fill:none;fill-rule:evenodd;stroke:#000000;stroke-width:2px;stroke-linecap:butt;stroke-linejoin:miter;stroke-opacity:1' />
<path d='M 619.461,74.0447 501.301,63.8874' style='fill:none;fill-rule:evenodd;stroke:#000000;stroke-width:2px;stroke-linecap:butt;stroke-linejoin:miter;stroke-opacity:1' />
<text x='85.0682' y='253.409' style='font-size:39px;font-style:normal;font-weight:normal;fill-opacity:1;stroke:none;font-family:sans-serif;text-anchor:start;fill:#0000FF' ><tspan>NH</tspan><tspan style='baseline-shift:sub;font-size:29.25px;'>2</tspan><tspan></tspan></text>
<text x='616.559' y='401.447' style='font-size:39px;font-style:normal;font-weight:normal;fill-opacity:1;stroke:none;font-family:sans-serif;text-anchor:start;fill:#FF0000' ><tspan>OH</tspan></text>
<text x='752.312' y='206.945' style='font-size:39px;font-style:normal;font-weight:normal;fill-opacity:1;stroke:none;font-family:sans-serif;text-anchor:start;fill:#FF0000' ><tspan>OH</tspan></text>
</g>
<circle cx='784.704271362' cy='796.165834499' r='30' fill='white' /><circle cx='946.704271362' cy='218.165834499' r='30' fill='white' /><circle cx='195.704271362' cy='310.165834499' r='30' fill='white' /><circle cx='336.704271362' cy='657.165834499' r='30' fill='white' /><circle cx='714.704271362' cy='740.165834499' r='30' fill='white' /><circle cx='549.704271362' cy='761.165834499' r='30' fill='white' /><circle cx='612.704271362' cy='135.165834499' r='30' fill='white' /><circle cx='1071.70427136' cy='522.165834499' r='30' fill='white' /><circle cx='367.704271362' cy='195.165834499' r='30' fill='white' /> <g transform='translate(730,742)'>
 <g id="figure_1">
  <g id="patch_1">
   <path d="
M0 108
L108 108
L108 0
L0 0
L0 108" style="fill:none;"/>
  </g>
  <g id="axes_1">
   <g id="patch_2">
    <path d="
M97.2 54
C97.2 48.5043 96.1175 43.0621 94.0144 37.9847
C91.9112 32.9073 88.8285 28.2936 84.9424 24.4076
C81.0564 20.5215 76.4427 17.4388 71.3653 15.3356
C66.2879 13.2325 60.8457 12.15 55.35 12.15
C49.8543 12.15 44.4121 13.2325 39.3347 15.3356
C34.2573 17.4388 29.6436 20.5215 25.7576 24.4076
C21.8715 28.2936 18.7888 32.9073 16.6856 37.9847
C14.5825 43.0621 13.5 48.5043 13.5 54
C13.5 59.4957 14.5825 64.9379 16.6856 70.0153
C18.7888 75.0927 21.8715 79.7064 25.7576 83.5924
C29.6436 87.4785 34.2573 90.5612 39.3347 92.6644
C44.4121 94.7675 49.8543 95.85 55.35 95.85
C60.8457 95.85 66.2879 94.7675 71.3653 92.6644
C76.4427 90.5612 81.0564 87.4785 84.9424 83.5924
C88.8285 79.7064 91.9112 75.0927 94.0144 70.0153
C96.1175 64.9379 97.2 59.4957 97.2 54
M55.35 54
C55.35 54 55.35 54 55.35 54
C55.35 54 55.35 54 55.35 54
C55.35 54 55.35 54 55.35 54
C55.35 54 55.35 54 55.35 54
C55.35 54 55.35 54 55.35 54
C55.35 54 55.35 54 55.35 54
C55.35 54 55.35 54 55.35 54
C55.35 54 55.35 54 55.35 54
C55.35 54 55.35 54 55.35 54
C55.35 54 55.35 54 55.35 54
C55.35 54 55.35 54 55.35 54
C55.35 54 55.35 54 55.35 54
C55.35 54 55.35 54 55.35 54
C55.35 54 55.35 54 55.35 54
C55.35 54 55.35 54 55.35 54
C55.35 54 55.35 54 55.35 54
M97.2 54
z
" style="fill:#d06ac1;"/>
   </g>
   <g id="matplotlib.axis_1"/>
   <g id="matplotlib.axis_2"/>
   <g id="text_1">
    <text style="font-family:Bitstream Vera Sans;font-size:24.0px;font-style:normal;font-weight:bold;" transform="translate(30.37125 50.14275)">SER</text>
    <text style="font-family:Bitstream Vera Sans;font-size:24.0px;font-style:normal;font-weight:bold;" transform="translate(31.884375 77.0175)">422</text>
   </g>
  </g>
 </g>
</g>
 <g transform='translate(892,163)'>
 <g id="figure_1">
  <g id="patch_1">
   <path d="
M0 108
L108 108
L108 0
L0 0
L0 108" style="fill:none;"/>
  </g>
  <g id="axes_1">
   <g id="patch_2">
    <path d="
M97.2 54
C97.2 48.5043 96.1175 43.0621 94.0144 37.9847
C91.9112 32.9073 88.8285 28.2936 84.9424 24.4076
C81.0564 20.5215 76.4427 17.4388 71.3653 15.3356
C66.2879 13.2325 60.8457 12.15 55.35 12.15
C49.8543 12.15 44.4121 13.2325 39.3347 15.3356
C34.2573 17.4388 29.6436 20.5215 25.7576 24.4076
C21.8715 28.2936 18.7888 32.9073 16.6856 37.9847
C14.5825 43.0621 13.5 48.5043 13.5 54
C13.5 59.4957 14.5825 64.9379 16.6856 70.0153
C18.7888 75.0927 21.8715 79.7064 25.7576 83.5924
C29.6436 87.4785 34.2573 90.5612 39.3347 92.6644
C44.4121 94.7675 49.8543 95.85 55.35 95.85
C60.8457 95.85 66.2879 94.7675 71.3653 92.6644
C76.4427 90.5612 81.0564 87.4785 84.9424 83.5924
C88.8285 79.7064 91.9112 75.0927 94.0144 70.0153
C96.1175 64.9379 97.2 59.4957 97.2 54
M55.35 54
C55.35 54 55.35 54 55.35 54
C55.35 54 55.35 54 55.35 54
C55.35 54 55.35 54 55.35 54
C55.35 54 55.35 54 55.35 54
C55.35 54 55.35 54 55.35 54
C55.35 54 55.35 54 55.35 54
C55.35 54 55.35 54 55.35 54
C55.35 54 55.35 54 55.35 54
C55.35 54 55.35 54 55.35 54
C55.35 54 55.35 54 55.35 54
C55.35 54 55.35 54 55.35 54
C55.35 54 55.35 54 55.35 54
C55.35 54 55.35 54 55.35 54
C55.35 54 55.35 54 55.35 54
C55.35 54 55.35 54 55.35 54
C55.35 54 55.35 54 55.35 54
M97.2 54
z
" style="fill:#6ac297;"/>
   </g>
   <g id="matplotlib.axis_1"/>
   <g id="matplotlib.axis_2"/>
   <g id="text_1">
    <text style="font-family:Bitstream Vera Sans;font-size:24.0px;font-style:normal;font-weight:bold;" transform="translate(30.32625 50.14275)">VAL</text>
    <text style="font-family:Bitstream Vera Sans;font-size:24.0px;font-style:normal;font-weight:bold;" transform="translate(32.229375 77.0175)">120</text>
   </g>
  </g>
 </g>
</g>
 <g transform='translate(141,256)'>
 <g id="figure_1">
  <g id="patch_1">
   <path d="
M0 108
L108 108
L108 0
L0 0
L0 108" style="fill:none;"/>
  </g>
  <g id="axes_1">
   <g id="patch_2">
    <path d="
M97.2 54
C97.2 48.5043 96.1175 43.0621 94.0144 37.9847
C91.9112 32.9073 88.8285 28.2936 84.9424 24.4076
C81.0564 20.5215 76.4427 17.4388 71.3653 15.3356
C66.2879 13.2325 60.8457 12.15 55.35 12.15
C49.8543 12.15 44.4121 13.2325 39.3347 15.3356
C34.2573 17.4388 29.6436 20.5215 25.7576 24.4076
C21.8715 28.2936 18.7888 32.9073 16.6856 37.9847
C14.5825 43.0621 13.5 48.5043 13.5 54
C13.5 59.4957 14.5825 64.9379 16.6856 70.0153
C18.7888 75.0927 21.8715 79.7064 25.7576 83.5924
C29.6436 87.4785 34.2573 90.5612 39.3347 92.6644
C44.4121 94.7675 49.8543 95.85 55.35 95.85
C60.8457 95.85 66.2879 94.7675 71.3653 92.6644
C76.4427 90.5612 81.0564 87.4785 84.9424 83.5924
C88.8285 79.7064 91.9112 75.0927 94.0144 70.0153
C96.1175 64.9379 97.2 59.4957 97.2 54
M55.35 54
C55.35 54 55.35 54 55.35 54
C55.35 54 55.35 54 55.35 54
C55.35 54 55.35 54 55.35 54
C55.35 54 55.35 54 55.35 54
C55.35 54 55.35 54 55.35 54
C55.35 54 55.35 54 55.35 54
C55.35 54 55.35 54 55.35 54
C55.35 54 55.35 54 55.35 54
C55.35 54 55.35 54 55.35 54
C55.35 54 55.35 54 55.35 54
C55.35 54 55.35 54 55.35 54
C55.35 54 55.35 54 55.35 54
C55.35 54 55.35 54 55.35 54
C55.35 54 55.35 54 55.35 54
C55.35 54 55.35 54 55.35 54
C55.35 54 55.35 54 55.35 54
M97.2 54
z
" style="fill:#d9774b;"/>
   </g>
   <g id="matplotlib.axis_1"/>
   <g id="matplotlib.axis_2"/>
   <g id="text_1">
    <text style="font-family:Bitstream Vera Sans;font-size:24.0px;font-style:normal;font-weight:bold;" transform="translate(29.176875 50.14275)">ASP</text>
    <text style="font-family:Bitstream Vera Sans;font-size:24.0px;font-style:normal;font-weight:bold;" transform="translate(39.83625 77.0175)">46</text>
   </g>
  </g>
 </g>
</g>
 <g transform='translate(283,603)'>
 <g id="figure_1">
  <g id="patch_1">
   <path d="
M0 108
L108 108
L108 0
L0 0
L0 108" style="fill:none;"/>
  </g>
  <g id="axes_1">
   <g id="patch_2">
    <path d="
M97.2 54
C97.2 48.5043 96.1175 43.0621 94.0144 37.9847
C91.9112 32.9073 88.8285 28.2936 84.9424 24.4076
C81.0564 20.5215 76.4427 17.4388 71.3653 15.3356
C66.2879 13.2325 60.8457 12.15 55.35 12.15
C49.8543 12.15 44.4121 13.2325 39.3347 15.3356
C34.2573 17.4388 29.6436 20.5215 25.7576 24.4076
C21.8715 28.2936 18.7888 32.9073 16.6856 37.9847
C14.5825 43.0621 13.5 48.5043 13.5 54
C13.5 59.4957 14.5825 64.9379 16.6856 70.0153
C18.7888 75.0927 21.8715 79.7064 25.7576 83.5924
C29.6436 87.4785 34.2573 90.5612 39.3347 92.6644
C44.4121 94.7675 49.8543 95.85 55.35 95.85
C60.8457 95.85 66.2879 94.7675 71.3653 92.6644
C76.4427 90.5612 81.0564 87.4785 84.9424 83.5924
C88.8285 79.7064 91.9112 75.0927 94.0144 70.0153
C96.1175 64.9379 97.2 59.4957 97.2 54
M55.35 54
C55.35 54 55.35 54 55.35 54
C55.35 54 55.35 54 55.35 54
C55.35 54 55.35 54 55.35 54
C55.35 54 55.35 54 55.35 54
C55.35 54 55.35 54 55.35 54
C55.35 54 55.35 54 55.35 54
C55.35 54 55.35 54 55.35 54
C55.35 54 55.35 54 55.35 54
C55.35 54 55.35 54 55.35 54
C55.35 54 55.35 54 55.35 54
C55.35 54 55.35 54 55.35 54
C55.35 54 55.35 54 55.35 54
C55.35 54 55.35 54 55.35 54
C55.35 54 55.35 54 55.35 54
C55.35 54 55.35 54 55.35 54
C55.35 54 55.35 54 55.35 54
M97.2 54
z
" style="fill:#9fc74a;"/>
   </g>
   <g id="matplotlib.axis_1"/>
   <g id="matplotlib.axis_2"/>
   <g id="text_1">
    <text style="font-family:Bitstream Vera Sans;font-size:24.0px;font-style:normal;font-weight:bold;" transform="translate(29.533125 50.14275)">TYR</text>
    <text style="font-family:Bitstream Vera Sans;font-size:24.0px;font-style:normal;font-weight:bold;" transform="translate(32.206875 77.0175)">124</text>
   </g>
  </g>
 </g>
</g>
 <g transform='translate(661,686)'>
 <g id="figure_1">
  <g id="patch_1">
   <path d="
M0 108
L108 108
L108 0
L0 0
L0 108" style="fill:none;"/>
  </g>
  <g id="axes_1">
   <g id="patch_2">
    <path d="
M97.2 54
C97.2 48.5043 96.1175 43.0621 94.0144 37.9847
C91.9112 32.9073 88.8285 28.2936 84.9424 24.4076
C81.0564 20.5215 76.4427 17.4388 71.3653 15.3356
C66.2879 13.2325 60.8457 12.15 55.35 12.15
C49.8543 12.15 44.4121 13.2325 39.3347 15.3356
C34.2573 17.4388 29.6436 20.5215 25.7576 24.4076
C21.8715 28.2936 18.7888 32.9073 16.6856 37.9847
C14.5825 43.0621 13.5 48.5043 13.5 54
C13.5 59.4957 14.5825 64.9379 16.6856 70.0153
C18.7888 75.0927 21.8715 79.7064 25.7576 83.5924
C29.6436 87.4785 34.2573 90.5612 39.3347 92.6644
C44.4121 94.7675 49.8543 95.85 55.35 95.85
C60.8457 95.85 66.2879 94.7675 71.3653 92.6644
C76.4427 90.5612 81.0564 87.4785 84.9424 83.5924
C88.8285 79.7064 91.9112 75.0927 94.0144 70.0153
C96.1175 64.9379 97.2 59.4957 97.2 54
M55.35 54
C55.35 54 55.35 54 55.35 54
C55.35 54 55.35 54 55.35 54
C55.35 54 55.35 54 55.35 54
C55.35 54 55.35 54 55.35 54
C55.35 54 55.35 54 55.35 54
C55.35 54 55.35 54 55.35 54
C55.35 54 55.35 54 55.35 54
C55.35 54 55.35 54 55.35 54
C55.35 54 55.35 54 55.35 54
C55.35 54 55.35 54 55.35 54
C55.35 54 55.35 54 55.35 54
C55.35 54 55.35 54 55.35 54
C55.35 54 55.35 54 55.35 54
C55.35 54 55.35 54 55.35 54
C55.35 54 55.35 54 55.35 54
C55.35 54 55.35 54 55.35 54
M97.2 54
z
" style="fill:#d9774b;"/>
   </g>
   <g id="matplotlib.axis_1"/>
   <g id="matplotlib.axis_2"/>
   <g id="text_1">
    <text style="font-family:Bitstream Vera Sans;font-size:24.0px;font-style:normal;font-weight:bold;" transform="translate(29.176875 50.14275)">ASP</text>
    <text style="font-family:Bitstream Vera Sans;font-size:24.0px;font-style:normal;font-weight:bold;" transform="translate(32.480625 77.0175)">121</text>
   </g>
  </g>
 </g>
</g>
 <g transform='translate(496,707)'>
 <g id="figure_1">
  <g id="patch_1">
   <path d="
M0 108
L108 108
L108 0
L0 0
L0 108" style="fill:none;"/>
  </g>
  <g id="axes_1">
   <g id="patch_2">
    <path d="
M97.2 54
C97.2 48.5043 96.1175 43.0621 94.0144 37.9847
C91.9112 32.9073 88.8285 28.2936 84.9424 24.4076
C81.0564 20.5215 76.4427 17.4388 71.3653 15.3356
C66.2879 13.2325 60.8457 12.15 55.35 12.15
C49.8543 12.15 44.4121 13.2325 39.3347 15.3356
C34.2573 17.4388 29.6436 20.5215 25.7576 24.4076
C21.8715 28.2936 18.7888 32.9073 16.6856 37.9847
C14.5825 43.0621 13.5 48.5043 13.5 54
C13.5 59.4957 14.5825 64.9379 16.6856 70.0153
C18.7888 75.0927 21.8715 79.7064 25.7576 83.5924
C29.6436 87.4785 34.2573 90.5612 39.3347 92.6644
C44.4121 94.7675 49.8543 95.85 55.35 95.85
C60.8457 95.85 66.2879 94.7675 71.3653 92.6644
C76.4427 90.5612 81.0564 87.4785 84.9424 83.5924
C88.8285 79.7064 91.9112 75.0927 94.0144 70.0153
C96.1175 64.9379 97.2 59.4957 97.2 54
M55.35 54
C55.35 54 55.35 54 55.35 54
C55.35 54 55.35 54 55.35 54
C55.35 54 55.35 54 55.35 54
C55.35 54 55.35 54 55.35 54
C55.35 54 55.35 54 55.35 54
C55.35 54 55.35 54 55.35 54
C55.35 54 55.35 54 55.35 54
C55.35 54 55.35 54 55.35 54
C55.35 54 55.35 54 55.35 54
C55.35 54 55.35 54 55.35 54
C55.35 54 55.35 54 55.35 54
C55.35 54 55.35 54 55.35 54
C55.35 54 55.35 54 55.35 54
C55.35 54 55.35 54 55.35 54
C55.35 54 55.35 54 55.35 54
C55.35 54 55.35 54 55.35 54
M97.2 54
z
" style="fill:#d06ac1;"/>
   </g>
   <g id="matplotlib.axis_1"/>
   <g id="matplotlib.axis_2"/>
   <g id="text_1">
    <text style="font-family:Bitstream Vera Sans;font-size:24.0px;font-style:normal;font-weight:bold;" transform="translate(30.37125 50.14275)">SER</text>
    <text style="font-family:Bitstream Vera Sans;font-size:24.0px;font-style:normal;font-weight:bold;" transform="translate(31.666875 77.0175)">421</text>
   </g>
  </g>
 </g>
</g>
 <g transform='translate(559,80)'>
 <g id="figure_1">
  <g id="patch_1">
   <path d="
M0 108
L108 108
L108 0
L0 0
L0 108" style="fill:none;"/>
  </g>
  <g id="axes_1">
   <g id="patch_2">
    <path d="
M97.2 54
C97.2 48.5043 96.1175 43.0621 94.0144 37.9847
C91.9112 32.9073 88.8285 28.2936 84.9424 24.4076
C81.0564 20.5215 76.4427 17.4388 71.3653 15.3356
C66.2879 13.2325 60.8457 12.15 55.35 12.15
C49.8543 12.15 44.4121 13.2325 39.3347 15.3356
C34.2573 17.4388 29.6436 20.5215 25.7576 24.4076
C21.8715 28.2936 18.7888 32.9073 16.6856 37.9847
C14.5825 43.0621 13.5 48.5043 13.5 54
C13.5 59.4957 14.5825 64.9379 16.6856 70.0153
C18.7888 75.0927 21.8715 79.7064 25.7576 83.5924
C29.6436 87.4785 34.2573 90.5612 39.3347 92.6644
C44.4121 94.7675 49.8543 95.85 55.35 95.85
C60.8457 95.85 66.2879 94.7675 71.3653 92.6644
C76.4427 90.5612 81.0564 87.4785 84.9424 83.5924
C88.8285 79.7064 91.9112 75.0927 94.0144 70.0153
C96.1175 64.9379 97.2 59.4957 97.2 54
M55.35 54
C55.35 54 55.35 54 55.35 54
C55.35 54 55.35 54 55.35 54
C55.35 54 55.35 54 55.35 54
C55.35 54 55.35 54 55.35 54
C55.35 54 55.35 54 55.35 54
C55.35 54 55.35 54 55.35 54
C55.35 54 55.35 54 55.35 54
C55.35 54 55.35 54 55.35 54
C55.35 54 55.35 54 55.35 54
C55.35 54 55.35 54 55.35 54
C55.35 54 55.35 54 55.35 54
C55.35 54 55.35 54 55.35 54
C55.35 54 55.35 54 55.35 54
C55.35 54 55.35 54 55.35 54
C55.35 54 55.35 54 55.35 54
C55.35 54 55.35 54 55.35 54
M97.2 54
z
" style="fill:#9fc74a;"/>
   </g>
   <g id="matplotlib.axis_1"/>
   <g id="matplotlib.axis_2"/>
   <g id="text_1">
    <text style="font-family:Bitstream Vera Sans;font-size:24.0px;font-style:normal;font-weight:bold;" transform="translate(30.29625 50.14275)">PHE</text>
    <text style="font-family:Bitstream Vera Sans;font-size:24.0px;font-style:normal;font-weight:bold;" transform="translate(31.9425 77.0175)">325</text>
   </g>
  </g>
 </g>
</g>
 <g transform='translate(1018,468)'>
 <g id="figure_1">
  <g id="patch_1">
   <path d="
M0 108
L108 108
L108 0
L0 0
L0 108" style="fill:none;"/>
  </g>
  <g id="axes_1">
   <g id="patch_2">
    <path d="
M97.2 54
C97.2 48.5043 96.1175 43.0621 94.0144 37.9847
C91.9112 32.9073 88.8285 28.2936 84.9424 24.4076
C81.0564 20.5215 76.4427 17.4388 71.3653 15.3356
C66.2879 13.2325 60.8457 12.15 55.35 12.15
C49.8543 12.15 44.4121 13.2325 39.3347 15.3356
C34.2573 17.4388 29.6436 20.5215 25.7576 24.4076
C21.8715 28.2936 18.7888 32.9073 16.6856 37.9847
C14.5825 43.0621 13.5 48.5043 13.5 54
C13.5 59.4957 14.5825 64.9379 16.6856 70.0153
C18.7888 75.0927 21.8715 79.7064 25.7576 83.5924
C29.6436 87.4785 34.2573 90.5612 39.3347 92.6644
C44.4121 94.7675 49.8543 95.85 55.35 95.85
C60.8457 95.85 66.2879 94.7675 71.3653 92.6644
C76.4427 90.5612 81.0564 87.4785 84.9424 83.5924
C88.8285 79.7064 91.9112 75.0927 94.0144 70.0153
C96.1175 64.9379 97.2 59.4957 97.2 54
M55.35 54
C55.35 54 55.35 54 55.35 54
C55.35 54 55.35 54 55.35 54
C55.35 54 55.35 54 55.35 54
C55.35 54 55.35 54 55.35 54
C55.35 54 55.35 54 55.35 54
C55.35 54 55.35 54 55.35 54
C55.35 54 55.35 54 55.35 54
C55.35 54 55.35 54 55.35 54
C55.35 54 55.35 54 55.35 54
C55.35 54 55.35 54 55.35 54
C55.35 54 55.35 54 55.35 54
C55.35 54 55.35 54 55.35 54
C55.35 54 55.35 54 55.35 54
C55.35 54 55.35 54 55.35 54
C55.35 54 55.35 54 55.35 54
C55.35 54 55.35 54 55.35 54
M97.2 54
z
" style="fill:#6ac297;"/>
   </g>
   <g id="matplotlib.axis_1"/>
   <g id="matplotlib.axis_2"/>
   <g id="text_1">
    <text style="font-family:Bitstream Vera Sans;font-size:24.0px;font-style:normal;font-weight:bold;" transform="translate(29.24625 50.14275)">ALA</text>
    <text style="font-family:Bitstream Vera Sans;font-size:24.0px;font-style:normal;font-weight:bold;" transform="translate(32.61 77.0175)">117</text>
   </g>
  </g>
 </g>
</g>
 <g transform='translate(314,140)'>
 <g id="figure_1">
  <g id="patch_1">
   <path d="
M0 108
L108 108
L108 0
L0 0
L0 108" style="fill:none;"/>
  </g>
  <g id="axes_1">
   <g id="patch_2">
    <path d="
M97.2 54
C97.2 48.5043 96.1175 43.0621 94.0144 37.9847
C91.9112 32.9073 88.8285 28.2936 84.9424 24.4076
C81.0564 20.5215 76.4427 17.4388 71.3653 15.3356
C66.2879 13.2325 60.8457 12.15 55.35 12.15
C49.8543 12.15 44.4121 13.2325 39.3347 15.3356
C34.2573 17.4388 29.6436 20.5215 25.7576 24.4076
C21.8715 28.2936 18.7888 32.9073 16.6856 37.9847
C14.5825 43.0621 13.5 48.5043 13.5 54
C13.5 59.4957 14.5825 64.9379 16.6856 70.0153
C18.7888 75.0927 21.8715 79.7064 25.7576 83.5924
C29.6436 87.4785 34.2573 90.5612 39.3347 92.6644
C44.4121 94.7675 49.8543 95.85 55.35 95.85
C60.8457 95.85 66.2879 94.7675 71.3653 92.6644
C76.4427 90.5612 81.0564 87.4785 84.9424 83.5924
C88.8285 79.7064 91.9112 75.0927 94.0144 70.0153
C96.1175 64.9379 97.2 59.4957 97.2 54
M55.35 54
C55.35 54 55.35 54 55.35 54
C55.35 54 55.35 54 55.35 54
C55.35 54 55.35 54 55.35 54
C55.35 54 55.35 54 55.35 54
C55.35 54 55.35 54 55.35 54
C55.35 54 55.35 54 55.35 54
C55.35 54 55.35 54 55.35 54
C55.35 54 55.35 54 55.35 54
C55.35 54 55.35 54 55.35 54
C55.35 54 55.35 54 55.35 54
C55.35 54 55.35 54 55.35 54
C55.35 54 55.35 54 55.35 54
C55.35 54 55.35 54 55.35 54
C55.35 54 55.35 54 55.35 54
C55.35 54 55.35 54 55.35 54
C55.35 54 55.35 54 55.35 54
M97.2 54
z
" style="fill:#9fc74a;"/>
   </g>
   <g id="matplotlib.axis_1"/>
   <g id="matplotlib.axis_2"/>
   <g id="text_1">
    <text style="font-family:Bitstream Vera Sans;font-size:24.0px;font-style:normal;font-weight:bold;" transform="translate(30.29625 50.14275)">PHE</text>
    <text style="font-family:Bitstream Vera Sans;font-size:24.0px;font-style:normal;font-weight:bold;" transform="translate(40.145625 77.0175)">43</text>
   </g>
  </g>
 </g>
</g>
<g transform='translate(0,932.331668998)'>  <circle
     cx="20"
     cy="20"
     r="15"
     transform="matrix(1,0,0,-1,0,40)"
     id="circle4"
     style="fill:#d9774b;fill-opacity:1" />
  <text
     x="40"
     y="25"
     id="text6"
     style="font-size:14px;fill:#000000;font-family:Verdana">acidic</text>
  <circle
     cx="120"
     cy="20"
     r="15"
     transform="translate(-20,0)"
     id="circle8"
     style="fill:#d06ac1;fill-opacity:1" />
  <text
     x="120"
     y="25"
     id="text10"
     style="font-size:14px;fill:#000000;font-family:Verdana">polar</text>
  <circle
     cx="220"
     cy="20"
     r="15"
     transform="translate(-40,0)"
     id="circle12"
     style="fill:#6ac297" />
  <text
     x="200"
     y="25"
     id="text14"
     style="font-size:14px;fill:#000000;font-family:Verdana">hydrophobic</text>
  <circle
     cx="320"
     cy="20"
     r="15"
     transform="translate(-10,0)"
     id="circle16"
     style="fill:#9fc74a" />
  <text
     x="330"
     y="25"
     id="text18"
     style="font-size:14px;fill:#000000;font-family:Verdana">aromatic</text>
  <circle
     cx="420"
     cy="20"
     r="15"
     transform="translate(-5,0)"
     id="circle20"
     style="fill:#889dcc;fill-opacity:1" />
  <text
     x="435"
     y="25"
     id="text22"
     style="font-size:14px;fill:#000000;font-family:Verdana">basic</text>
</g>
</svg>